# xmcd
#
# Track frame offsets:
# 150
# 10517
# 21920
# 35382
# 49065
# 60122
# 73945
# 88007
# 98970
# 112945
# 128537
# 145357
# 157855
# 172330
#
# Disc length: 2426 seconds
#
#
# Revision: 0
# Processed by: cddbd v1.5.2PL0 Copyright (c) Steve Scherf et al.
# Submitted via: FreeRIP 2.941 
#
DISCID=af09780e
DTITLE=Waylon Jennings - Love Songs
DYEAR=2005
DGENRE=Country
TTITLE0=yours love
TTITLE1=you ask me to
TTITLE2=amanda
TTITLE3=come with me
TTITLE4=let's turn back the years
TTITLE5=it'll be her
TTITLE6=waltz me to heaven
TTITLE7=dreaming my dreams with you
TTITLE8=storms never last (duet with Jessi  Colter)
TTITLE9=it's not supposed to be that way
TTITLE10=didn't we shine
TTITLE11=we had it all
TTITLE12=them old love songs
TTITLE13=the wurlitzer prize (i don't want to get over you)
EXTD=
EXTT0=
EXTT1=
EXTT2=
EXTT3=
EXTT4=
EXTT5=
EXTT6=
EXTT7=
EXTT8=
EXTT9=
EXTT10=
EXTT11=
EXTT12=
EXTT13=
PLAYORDER=
